<?xml version="1.0" encoding="utf-8"?>
<!-- Generator: Adobe Illustrator 24.2.1, SVG Export Plug-In . SVG Version: 6.00 Build 0)  -->
<svg version="1.1" id="city_boy" xmlns="http://www.w3.org/2000/svg" xmlns:xlink="http://www.w3.org/1999/xlink" x="0px" y="0px" viewBox="0 210 960 540" style="enable-background:new 0 210 960 540;" xml:space="preserve">
<title>You probably don't live in a place where the local acceleration due to gravity is best represented by its standard value of 9.81 m/s&#0178;. Most people don't.</title>
<style type="text/css">
	.st0{fill:#FFFFFF;stroke:#000000;stroke-width:0.5;stroke-linecap:round;}
	.st1{fill:#FFE6E6;}
	.st2{fill:#FFFFE6;}
	.st3{fill:#FFE6FF;}
	.st4{fill:#E6FFFF;}
	.st5{fill:#E6E6FF;}
	.st6{fill:#E6FFE6;}
	.st7{fill:none;stroke:#000000;stroke-width:0.5;stroke-linecap:round;}
	.st8{fill:#FFABAB;}
	.st9{fill:#ABFFAB;}
	.st10{fill:#FFFFAB;}
	.st11{fill:#ABFFFF;}
	.st12{fill:#FFABFF;}
	.st13{fill:#ABABFF;}
	.st14{font-family:'Helvetica';}
	.st15{font-size:45.6079px;}
	.st16{font-size:26.6046px;}
	.st17{font-size:38.1063px;}
	.st18{font-size:22.2287px;}
	.st19{font-size:23.5373px;}
	.st20{font-size:13.7301px;}
	.st21{font-size:19.189px;}
	.st22{font-size:11.1936px;}
	.st23{font-size:9.0237px;}
	.st24{font-size:5.2638px;}
	.st25{font-size:28.3757px;}
	.st26{font-size:16.5525px;}
	.st27{font-size:12px;}
	.st28{font-size:11px;}
	.st29{font-size:24px;}
	.st30{font-size:9px;}
</style>
<rect x="246" y="479.9999" class="st0" width="0.0001" height="0.0001"/>
<rect x="246" y="480" class="st0" width="0" height="0"/>
<rect x="246" y="479.9998" transform="matrix(0.7071 -0.7071 0.7071 0.7071 -267.3594 314.537)" class="st0" width="0" height="0.0001"/>
<polygon class="st0" points="246,479.9999 246,479.9999 246,479.9999"/>
<rect x="246" y="480" class="st0" width="0" height="0"/>
<polygon class="st0" points="246,480 246.0001,480 246,480"/>
<polygon class="st0" points="246,480 246,480 246,480"/>
<polygon class="st0" points="246,480 246,480 246.0001,480 246,480 246,480"/>
<polygon class="st0" points="246,480 246,480 246,480"/>
<polygon class="st0" points="246,480 246,480 246,480"/>
<polygon class="st0" points="246,480 246,480 246,480"/>
<polygon class="st0" points="246,480 246,479.9999 246,480"/>
<rect x="246" y="479.9999" class="st0" width="0" height="0.0001"/>
<polygon class="st0" points="246,479.9999 246,480 246,480"/>
<polygon class="st0" points="246,480 246,480 246,480"/>
<rect x="246" y="480" class="st0" width="0" height="0"/>
<rect x="246" y="480" class="st0" width="0" height="0"/>
<rect x="245.9999" y="480" class="st0" width="0.0001" height="0"/>
<polygon class="st0" points="246.0001,480 246.0001,480 246.0001,480"/>
<rect x="246" y="480" class="st0" width="0.0001" height="0"/>
<polygon class="st0" points="246,480.0001 246,480 246,480"/>
<polygon class="st0" points="246,479.9999 246,480 246,480"/>
<rect x="245.9999" y="480" transform="matrix(0.7071 -0.7071 0.7071 0.7071 -267.3596 314.537)" class="st0" width="0.0001" height="0.0001"/>
<polygon class="st0" points="246,479.9999 246,479.9999 246,479.9999"/>
<polygon class="st0" points="246,480 246,480 246,480"/>
<polygon class="st0" points="246,480 246,480 246,479.9999"/>
<rect x="246" y="480" class="st0" width="0" height="0"/>
<polygon class="st0" points="245.9999,480 246,480 246,480"/>
<polygon class="st0" points="246,480 246,480 246,480"/>
<polygon class="st0" points="246,480 246,480 246,480"/>
<rect x="246" y="480" class="st0" width="0" height="0"/>
<path class="st1" d="M-854.8052,122.3267C-891.3772,234.962-911.1428,355.1727-911.1428,480s19.7656,245.038,56.3376,357.6733
	L245.9999,480H246L-854.8052,122.3267z"/>
<g>
	<path class="st2" d="M-724.5579,1110.2876l970.5578-630.2875L245.9999,480L-854.8052,837.6733C-823.2634,934.8163-779.2038,1026.3126-724.5579,1110.2876z"/>
	<path class="st2" d="M-724.5579-150.2877c-54.6459,83.975-98.7055,175.4713-130.2473,272.6144L246,480L-724.5579-150.2877z"/>
</g>
<rect x="246" y="480" class="st0" width="0" height="0"/>
<rect x="246" y="480" class="st0" width="0.0001" height="0"/>
<rect x="246" y="480" class="st0" width="0" height="0.0001"/>
<polygon class="st0" points="246.0001,480 246.0001,480 246,480"/>
<polygon class="st0" points="246.0001,480 246.0001,480 246.0001,480"/>
<rect x="246.0001" y="480" transform="matrix(0.7071 -0.7071 0.7071 0.7071 -267.3595 314.5371)" class="st0" width="0" height="0"/>
<rect x="246.0001" y="480" class="st0" width="0" height="0"/>
<g>
	<path class="st3" d="M246,1637.1428V480.0001l-414.7884,1080.5608C-40.022,1610.021,99.8196,1637.1428,246,1637.1428z"/>
	<path class="st3" d="M-168.7885-600.5609L246,479.9999V-677.1428C99.8196-677.1428-40.022-650.021-168.7885-600.5609z"/>
</g>
<g>
	<path class="st4" d="M-586.3649,1283.8054c51.405,53.2198,107.865,101.5212,168.6103,144.1344L245.9999,480l-0.0001,0.0001L-586.3649,1283.8054z"/>
	<path class="st4" d="M-417.7546-467.9398c-60.7453,42.6132-117.2053,90.9144-168.6104,144.1344L246,479.9999L-417.7546-467.9398z"/>
</g>
<g>
	<path class="st5" d="M-417.7546,1427.9398c76.6838,53.7942,160.1886,98.5209,248.9662,132.621L246,480.0001V480h-0.0001L-417.7546,1427.9398z"/>
	<path class="st5" d="M-168.7885-600.5609c-88.7775,34.1002-172.2823,78.8269-248.9661,132.6211L246,479.9999L-168.7885-600.5609z"/>
</g>
<g>
	<path class="st6" d="M-586.3649,1283.8054l832.3648-803.8054l-970.5578,630.2875C-684.059,1172.5228-637.7385,1230.6182-586.3649,1283.8054z"/>
	<path class="st6" d="M-586.3649-323.8054c-51.3736,53.1873-97.6941,111.2826-138.193,173.5178L246,480v-0.0001L-586.3649-323.8054z"/>
</g>
<line class="st7" x1="165.3672" y1="690.0556" x2="326.6328" y2="269.9444"/>
<line class="st7" x1="116.9453" y1="664.3092" x2="375.0547" y2="295.6908"/>
<line class="st7" x1="84.1485" y1="636.2982" x2="407.8514" y2="323.7019"/>
<line class="st7" x1="57.2991" y1="602.5438" x2="434.7009" y2="357.4562"/>
<line class="st7" x1="32.0123" y1="549.5288" x2="459.9877" y2="410.4712"/>
<line class="st7" x1="326.6328" y1="690.0556" x2="165.3672" y2="269.9444"/>
<line class="st7" x1="375.0547" y1="664.3092" x2="116.9453" y2="295.6908"/>
<line class="st7" x1="407.8514" y1="636.2982" x2="84.1485" y2="323.7019"/>
<line class="st7" x1="434.7009" y1="602.5438" x2="57.2991" y2="357.4562"/>
<line class="st7" x1="459.9877" y1="549.5288" x2="32.0123" y2="410.4712"/>
<rect x="246" y="264" class="st3" width="1530" height="432"/>
<rect x="255" y="277.5" class="st5" width="1512" height="405"/>
<rect x="264" y="300" class="st4" width="1494" height="360"/>
<rect x="273" y="327" class="st6" width="1476" height="306"/>
<rect x="282" y="358.5" class="st2" width="1458" height="243"/>
<rect x="291" y="412.5" class="st1" width="1440" height="135"/>
<path class="st8" d="M40.5319,546.7606C33.7048,525.7349,30,503.3017,30,480s3.7048-45.7349,10.5319-66.7606h410.9362
	C458.2952,434.2651,462,456.6983,462,480s-3.7048,45.7349-10.5319,66.7606H40.5319z"/>
<g>
	<path class="st9" d="M401.3688,329.9622H90.6312c-9.5897,9.9282-18.2348,20.7719-25.7946,32.389h362.3268C419.6036,350.734,410.9584,339.8904,401.3688,329.9622z"/>
	<path class="st9" d="M90.6312,630.038h310.7375c9.5897-9.9282,18.2348-20.7719,25.7946-32.3889H64.8366C72.3964,609.2662,81.0416,620.1098,90.6312,630.038z"/>
</g>
<g>
	<path class="st10" d="M427.1634,362.3511H64.8366c-10.2003,15.6749-18.4169,32.7554-24.3047,50.8882h410.9362C445.5803,395.1065,437.3637,378.0261,427.1634,362.3511z"/>
	<path class="st10" d="M64.8366,597.6491h362.3268c10.2003-15.6749,18.4169-32.7553,24.3047-50.8881H40.5319C46.4197,564.8938,54.6363,581.9742,64.8366,597.6491z"/>
</g>
<g>
	<path class="st11" d="M369.8961,303.058H122.1039c-11.3391,7.9544-21.8771,16.9698-31.4727,26.9041h310.7375C391.7732,320.0278,381.2351,311.0125,369.8961,303.058z"/>
	<path class="st11" d="M122.1039,656.942h247.7921c11.3391-7.9543,21.8771-16.9697,31.4727-26.904H90.6312C100.2268,639.9723,110.7649,648.9877,122.1039,656.942z"/>
</g>
<g>
	<path class="st12" d="M246,264c-27.2874,0-53.3863,5.0734-77.423,14.3062H323.423C299.3863,269.0734,273.2874,264,246,264z"/>
	<path class="st12" d="M246,696c27.2874,0,53.3863-5.0734,77.423-14.3062H168.577C192.6137,690.9266,218.7126,696,246,696z"/>
</g>
<g>
	<path class="st13" d="M323.423,278.3062H168.577c-16.5715,6.3654-32.159,14.7104-46.4731,24.7518h247.7921C355.582,293.0166,339.9944,284.6716,323.423,278.3062z"/>
	<path class="st13" d="M168.577,681.6938H323.423c16.5715-6.3654,32.159-14.7104,46.4731-24.7518H122.1039C136.418,666.9835,152.0056,675.3285,168.577,681.6938z"/>
</g>
<text transform="matrix(1 0 0 1 151.1522 497.015)"><tspan x="0" y="0" class="st14 st15">9.78 m/s</tspan><tspan x="174.9043" y="-22.8042" class="st14 st16">2</tspan></text>
<text transform="matrix(1 0 0 1 166.7554 403.7174)"><tspan x="0" y="0" class="st14 st17">9.79 m/s</tspan><tspan x="146.1362" y="-19.0532" class="st14 st18">2</tspan></text>
<text transform="matrix(1 0 0 1 197.0503 327.2643)"><tspan x="0" y="0" class="st14 st19">9.81 m/s</tspan><tspan x="90.2641" y="-11.7686" class="st14 st20">2</tspan></text>
<text transform="matrix(1 0 0 1 206.111 299.4209)"><tspan x="0" y="0" class="st14 st21">9.82 m/s</tspan><tspan x="73.5894" y="-9.5942" class="st14 st22">2</tspan></text>
<text transform="matrix(1 0 0 1 227.2334 274.96)"><tspan x="0" y="0" class="st14 st23">9.83 m/s</tspan><tspan x="34.6055" y="-4.5117" class="st14 st24">2</tspan></text>
<text transform="matrix(1 0 0 1 186.9873 359.4526)"><tspan x="0" y="0" class="st14 st25">9.80 m/s</tspan><tspan x="108.8193" y="-14.188" class="st14 st26">2</tspan></text>
<text transform="matrix(1 0 0 1 166.7466 589.7144)"><tspan x="0" y="0" class="st14 st17">9.79 m/s</tspan><tspan x="146.1362" y="-19.0532" class="st14 st18">2</tspan></text>
<text transform="matrix(1 0 0 1 197.0513 653.2983)"><tspan x="0" y="0" class="st14 st19">9.81 m/s</tspan><tspan x="90.2641" y="-11.7686" class="st14 st20">2</tspan></text>
<text transform="matrix(1 0 0 1 206.0757 677.4077)"><tspan x="0" y="0" class="st14 st21">9.82 m/s</tspan><tspan x="73.5894" y="-9.5942" class="st14 st22">2</tspan></text>
<text transform="matrix(1 0 0 1 227.2344 692.9531)"><tspan x="0" y="0" class="st14 st23">9.83 m/s</tspan><tspan x="34.6055" y="-4.5117" class="st14 st24">2</tspan></text>
<text transform="matrix(1 0 0 1 186.9883 625.4395)"><tspan x="0" y="0" class="st14 st25">9.80 m/s</tspan><tspan x="108.8193" y="-14.188" class="st14 st26">2</tspan></text>
<text transform="matrix(-0.309 -0.9511 0.9511 -0.309 33.4318 562.0659)" class="st14 st27">&#8722;18°</text>
<text transform="matrix(-0.5446 -0.8387 0.8387 -0.5446 61.9129 614.3335)" class="st14 st27">&#8722;33°</text>
<text transform="matrix(-0.6947 -0.7193 0.7193 -0.6947 90.9276 646.9769)" class="st14 st27">&#8722;44°</text>
<text transform="matrix(-0.8192 -0.5736 0.5736 -0.8192 125.6972 673.498)" class="st14 st27">&#8722;55°</text>
<text transform="matrix(-0.9336 -0.3584 0.3584 -0.9336 176.0615 696.8636)" class="st14 st27">&#8722;69°</text>
<text transform="matrix(0.309 -0.9511 0.9511 0.309 25.7596 421.6426)" class="st14 st27">+18°</text>
<text transform="matrix(0.5446 -0.8387 0.8387 0.5446 48.3194 366.6323)" class="st14 st27">+33°</text>
<text transform="matrix(0.6947 -0.7193 0.7193 0.6947 73.5976 330.9946)" class="st14 st27">+44°</text>
<text transform="matrix(0.8192 -0.5736 0.5736 0.8192 105.1962 300.7765)" class="st14 st27">+55°</text>
<text transform="matrix(0.9336 -0.3584 0.3584 0.9336 152.7268 272.0573)" class="st14 st27">+69°</text>
<text transform="matrix(1 0 0 1 140.9531 732)" class="st14 st27">(critical latitudes computed at sea level)</text>
<text transform="matrix(1 0 0 1 367.9998 291.0002)" class="st14 st28">Saint Petersburg, Moscow</text>
<text transform="matrix(1 0 0 1 401.9998 318.0002)" class="st14 st28">London, Paris, Harbin</text>
<text transform="matrix(1 0 0 1 416.9998 336.0002)" class="st14 st28">Toronto, Istanbul, Chicago, Shenyang, Barcelona, New York City, Madrid, Beijing, Tianjin, Philadelphia, Dalian</text>
<text transform="matrix(1 0 0 1 431.9998 354.0002)" class="st14 st28">Washington, Seoul, Qingdao, Jinan, Tokyo, Nagoya, Tehran, Osaka, Los Angeles, Xi&apos;an, Baghdad, Atlanta, Fukuoka</text>
<text transform="matrix(1 0 0 1 442.9998 372.0002)" class="st14 st28">Nanjing, Dallas, Shanghai, Lahore, Suzhou, Alexandria, Cairo, Chengdu, Wuhan, Hangzhou, Chongqing</text>
<text transform="matrix(1 0 0 1 451.9998 390.0002)" class="st14 st28">Houston, Delhi, Miami, Karachi, Riyadh, Dhaka, Guangzhou, Ahmedabad, Dongguan, Foshan</text>
<text transform="matrix(1 0 0 1 458.9998 408.0002)" class="st14 st28">Kolkata, Shenzhen, Hong Kong, Surat, Guadalajara, Mexico City, Mumbai, Pune</text>
<text transform="matrix(1 0 0 1 464.9998 426.0002)" class="st14 st28">Hyderabad, Yangon, Khartoum, Manila, Chennai, Bangkok</text>
<text transform="matrix(1 0 0 1 468.9998 444.0002)" class="st14 st28">Bangalore, Ho Chi Minh City</text>
<text transform="matrix(1 0 0 1 470.9998 462.0002)" class="st14 st28">Lagos, Bogotá, Kuala Lumpur</text>
<text transform="matrix(1 0 0 1 471.9998 480.0002)" class="st14 st28">Singapore</text>
<text transform="matrix(1 0 0 1 471.9998 498.0002)" class="st14 st28">Kinshasa, Jakarta, Dar es Salaam</text>
<text transform="matrix(1 0 0 1 469.9998 516.0002)" class="st14 st28">Luanda, Lima</text>
<text transform="matrix(1 0 0 1 459.9998 561.0002)" class="st14 st28">Belo Horizonte, São Paulo, Rio de Janeiro</text>
<text transform="matrix(1 0 0 1 452.9998 579.0002)" class="st14 st28">Johannesburg</text>
<text transform="matrix(1 0 0 1 432.9998 615.0002)" class="st14 st28">Santiago, Buenos Aires</text>
<text transform="matrix(1 0 0 1 220.5234 246)" class="st14 st29">acceleration due to gravity in the 81 largest cities</text>
<text transform="matrix(0 1 -1 0 12 456.4893)" class="st14 st30">physics.info</text>
</svg>
